HIERARCHY
ROOT Hips
{
	OFFSET 0.000000 0.000000 0.000000
	CHANNELS 6 Xposition Yposition Zposition Zrotation Yrotation Xrotation 
	JOINT LHipJoint
	{
		OFFSET 0.000000 0.000000 0.000000
		CHANNELS 3 Zrotation Yrotation Xrotation
		JOINT LeftUpLeg
		{
			OFFSET 1.363060 -1.794630 0.839290
			CHANNELS 3 Zrotation Yrotation Xrotation
			JOINT LeftLeg
			{
				OFFSET 2.448110 -6.726130 0.000000
				CHANNELS 3 Zrotation Yrotation Xrotation
				JOINT LeftFoot
				{
					OFFSET 2.562200 -7.039590 0.000000
					CHANNELS 3 Zrotation Yrotation Xrotation
					JOINT LeftToeBase
					{
						OFFSET 0.157640 -0.433110 2.322550
						CHANNELS 3 Zrotation Yrotation Xrotation
						End Site
						{
							OFFSET 0.000000 0.000000 0.000000
						}
					}
				}
			}
		}
	}
	JOINT RHipJoint
	{
		OFFSET 0.000000 0.000000 0.000000
		CHANNELS 3 Zrotation Yrotation Xrotation
		JOINT RightUpLeg
		{
			OFFSET -1.305520 -1.794630 0.839290
			CHANNELS 3 Zrotation Yrotation Xrotation
			JOINT RightLeg
			{
				OFFSET -2.542530 -6.985550 0.000000
				CHANNELS 3 Zrotation Yrotation Xrotation
				JOINT RightFoot
				{
					OFFSET -2.568260 -7.056230 0.000000
					CHANNELS 3 Zrotation Yrotation Xrotation
					JOINT RightToeBase
					{
						OFFSET -0.164730 -0.452590 2.363150
						CHANNELS 3 Zrotation Yrotation Xrotation
						End Site
						{
							OFFSET 0.000000 0.000000 0.000000
						}
					}
				}
			}
		}
	}
	JOINT LowerBack
	{
		OFFSET 0.000000 0.000000 0.000000
		CHANNELS 3 Zrotation Yrotation Xrotation
		JOINT Spine
		{
			OFFSET 0.028270 2.035590 -0.193380
			CHANNELS 3 Zrotation Yrotation Xrotation
			JOINT Spine1
			{
				OFFSET 0.056720 2.048850 -0.042750
				CHANNELS 3 Zrotation Yrotation Xrotation
				JOINT Neck
				{
					OFFSET 0.000000 0.000000 0.000000
					CHANNELS 3 Zrotation Yrotation Xrotation
					JOINT Neck1
					{
						OFFSET -0.054170 1.746240 0.172020
						CHANNELS 3 Zrotation Yrotation Xrotation
						JOINT Head
						{
							OFFSET 0.104070 1.761360 -0.123970
							CHANNELS 3 Zrotation Yrotation Xrotation
							End Site
							{
								OFFSET 0.000000 0.000000 0.000000
							}
						}
					}
				}
				JOINT LeftShoulder
				{
					OFFSET 0.000000 0.000000 0.000000
					CHANNELS 3 Zrotation Yrotation Xrotation
					JOINT LeftArm
					{
						OFFSET 3.362410 1.200890 -0.311210
						CHANNELS 3 Zrotation Yrotation Xrotation
						JOINT LeftForeArm
						{
							OFFSET 4.983000 -0.000000 -0.000000
							CHANNELS 3 Zrotation Yrotation Xrotation
							JOINT LeftHand
							{
								OFFSET 3.483560 -0.000000 -0.000000
								CHANNELS 3 Zrotation Yrotation Xrotation
								JOINT LeftFingerBase
								{
									OFFSET 0.000000 0.000000 0.000000
									CHANNELS 3 Zrotation Yrotation Xrotation
									JOINT LeftHandIndex1
									{
										OFFSET 0.715260 -0.000000 -0.000000
										CHANNELS 3 Zrotation Yrotation Xrotation
										End Site
										{
											OFFSET 0.000000 0.000000 0.000000
										}
									}
								}
								JOINT LThumb
								{
									OFFSET 0.000000 0.000000 0.000000
									CHANNELS 3 Zrotation Yrotation Xrotation
									End Site
									{
										OFFSET 0.000000 0.000000 0.000000
									}
								}
							}
						}
					}
				}
				JOINT RightShoulder
				{
					OFFSET 0.000000 0.000000 0.000000
					CHANNELS 3 Zrotation Yrotation Xrotation
					JOINT RightArm
					{
						OFFSET -3.136600 1.374050 -0.404650
						CHANNELS 3 Zrotation Yrotation Xrotation
						JOINT RightForeArm
						{
							OFFSET -5.241900 -0.000000 -0.000000
							CHANNELS 3 Zrotation Yrotation Xrotation
							JOINT RightHand
							{
								OFFSET -3.444170 -0.000000 -0.000000
								CHANNELS 3 Zrotation Yrotation Xrotation
								JOINT RightFingerBase
								{
									OFFSET 0.000000 0.000000 0.000000
									CHANNELS 3 Zrotation Yrotation Xrotation
									JOINT RightHandIndex1
									{
										OFFSET -0.622530 -0.000000 -0.000000
										CHANNELS 3 Zrotation Yrotation Xrotation
										End Site
										{
											OFFSET 0.000000 0.000000 0.000000
										}
									}
								}
								JOINT RThumb
								{
									OFFSET 0.000000 0.000000 0.000000
									CHANNELS 3 Zrotation Yrotation Xrotation
									End Site
									{
										OFFSET 0.000000 0.000000 0.000000
									}
								}
							}
						}
					}
				}
			}
		}
	}
}
MOTION
Frames: 4
Frame Time: 0.008333
1.556271 16.832722 0.062486 170.025533 -72.671340 -154.770933 -9.903348 2.050667 1.238638 -11.069854 16.294338 -24.160281 -1.947074 -0.641969 21.361239 3.612439 20.658758 -11.117710 -1.033100 0.000000 -44.257600 10.450295 -2.162121 6.721133 -2.245003 7.384144 -32.489497 1.207159 -1.433781 31.412393 -0.946204 -1.133167 -12.843709 0.151800 -0.000001 -67.173600 -7.274812 -0.751228 -11.104650 -1.972669 -0.346386 -4.328677 -7.276683 -0.062955 0.856345 12.330846 -10.036647 -5.655328 -4.218065 -0.349294 0.478467 0.000000 0.000000 0.000000 16.109712 9.441527 -2.642387 -88.060315 -8.905990 26.481716 179.090108 -46.852931 179.764205 8.502002 -40.847067 -3.432291 -0.042149 2.566218 -0.000000 0.000000 0.000000 0.000000 0.000000 0.000000 0.000000 6.550053 -6.760226 -2.758638 92.356381 24.649495 44.665778 -179.628820 54.797897 179.773915 -30.649292 39.393116 -12.173247 0.897241 -2.143650 -0.000000 0.000000 0.000000 0.000000 0.000000 0.000000 0.000000 
1.522316 16.864604 0.056053 171.497888 -70.532646 -156.147655 -9.999508 2.209666 1.132765 -11.406066 17.993140 -23.667548 -2.043251 -0.727715 19.945142 3.603479 21.004841 -10.448003 -0.790701 0.000000 -44.445100 10.320062 -2.304691 7.177672 -2.566625 8.460561 -32.543725 1.250182 -1.307641 30.092228 -0.711638 -0.094584 -11.948113 0.072700 -0.000001 -67.792800 -6.803390 -0.559864 -11.660837 -1.909287 -0.223506 -4.368903 -7.241232 0.056326 1.180802 12.168947 -10.164005 -5.932490 -4.204995 -0.346551 0.409749 0.000000 0.000000 0.000000 15.953255 10.380386 -2.734366 -87.549294 -9.471751 26.102850 179.263221 -46.587499 179.770094 8.487780 -40.989856 -3.443494 -0.051742 2.583276 -0.000000 0.000000 0.000000 0.000000 0.000000 0.000000 0.000000 6.436087 -6.821161 -2.846898 92.557178 24.933324 45.625279 -179.707885 54.991244 179.780481 -30.453555 38.993504 -11.969941 0.911084 -2.137194 -0.000000 0.000000 0.000000 0.000000 0.000000 0.000000 0.000000 
1.486202 16.900549 0.050597 172.815766 -68.377934 -157.345165 -10.109028 2.374610 1.040165 -11.715236 19.735412 -23.189428 -2.145168 -0.818261 18.421234 3.574030 21.292189 -9.652395 -0.489100 -0.000000 -44.715300 10.172376 -2.464690 7.650794 -2.855172 9.555429 -32.533976 1.304479 -1.164034 28.543394 -0.474592 0.932535 -10.913730 0.018100 -0.000000 -68.447500 -6.239763 -0.361254 -12.237047 -1.833805 -0.105125 -4.414433 -7.212826 0.170250 1.496698 11.985457 -10.298015 -6.179359 -4.195378 -0.344313 0.349742 0.000000 0.000000 0.000000 15.798198 11.258039 -2.844017 -86.867670 -10.203620 25.579975 179.457324 -46.329692 179.775944 8.532907 -41.236274 -3.489081 -0.063794 2.603598 -0.000000 0.000000 0.000000 0.000000 0.000000 0.000000 0.000000 6.328093 -6.917529 -2.932571 92.711106 25.267166 46.563288 -179.790140 55.197932 179.787020 -30.257547 38.583478 -11.764581 0.924448 -2.129006 -0.000000 0.000000 0.000000 0.000000 0.000000 0.000000 0.000000 
1.448440 16.939843 0.045341 173.997797 -66.232715 -158.376128 -10.233675 2.542568 0.959949 -11.997898 21.508583 -22.751970 -2.253454 -0.910127 16.830442 3.520566 21.498032 -8.730291 -0.129500 0.000000 -45.097700 10.006690 -2.641657 8.138197 -3.111780 10.664893 -32.467527 1.369275 -1.005113 26.785181 -0.239914 1.923553 -9.745491 -0.005801 0.000000 -69.104801 -5.600336 -0.157211 -12.828772 -1.750076 0.008375 -4.467499 -7.198281 0.278641 1.788242 11.789561 -10.435380 -6.379641 -4.190030 -0.342816 0.302699 0.000000 0.000000 0.000000 15.662399 12.024238 -2.971984 -85.987161 -11.097685 24.862196 179.662878 -46.096531 179.781397 8.650003 -41.569067 -3.573174 -0.078088 2.624869 -0.000000 0.000000 0.000000 0.000000 0.000000 0.000000 0.000000 6.234706 -7.047771 -3.008744 92.817384 25.636415 47.453683 -179.871463 55.409863 179.793200 -30.074842 38.169581 -11.564767 0.937209 -2.119308 -0.000000 0.000000 0.000000 0.000000 0.000000 0.000000 0.000000 
